<?xml version="1.0" standalone="no"?>
<!DOCTYPE svg PUBLIC "-//W3C//DTD SVG 20010904//EN"
 "http://www.w3.org/TR/2001/REC-SVG-20010904/DTD/svg10.dtd">
<svg version="1.0" xmlns="http://www.w3.org/2000/svg"
 width="300.000000pt" height="259.000000pt" viewBox="0 0 300.000000 259.000000"
 preserveAspectRatio="xMidYMid meet">
<metadata>
Created by potrace 1.10, written by Peter Selinger 2001-2011
</metadata>
<g transform="translate(0.000000,259.000000) scale(0.100000,-0.100000)"
fill="#ffffff" stroke="none">
<path d="M714 2303 c-144 -166 -241 -331 -299 -513 -24 -73 -28 -107 -32 -240
-6 -186 10 -291 59 -390 32 -64 34 -66 103 -92 145 -56 226 -34 361 100 l71
71 -5 -132 c-4 -122 -6 -135 -29 -166 -14 -18 -108 -115 -208 -215 -253 -253
-315 -351 -315 -503 0 -55 3 -67 26 -90 23 -23 31 -25 97 -21 92 4 169 42 246
119 75 75 115 146 145 254 13 50 39 141 56 203 21 75 32 142 34 196 2 67 7 90
29 127 22 38 42 79 114 239 10 20 11 11 6 -50 -6 -95 10 -146 56 -177 78 -53
152 -21 205 89 l36 73 0 -53 c0 -60 23 -118 50 -127 27 -8 62 9 102 51 38 39
138 245 174 357 10 31 20 54 23 52 2 -3 8 -65 13 -138 13 -230 25 -267 84
-267 26 0 65 46 100 118 l23 47 1 -65 c0 -78 14 -134 40 -160 36 -36 68 -36
172 0 105 35 166 76 155 103 -9 24 -34 21 -66 -6 -15 -13 -67 -36 -115 -52
l-88 -30 -18 23 c-26 32 -34 98 -27 218 4 57 4 110 1 119 -8 21 -43 19 -51 -2
-33 -95 -118 -263 -134 -263 -13 0 -34 268 -34 435 0 101 5 127 57 325 75 284
93 450 55 498 -5 6 -20 12 -34 12 -19 0 -28 -9 -44 -46 -54 -120 -89 -354 -89
-588 0 -114 -12 -166 -81 -338 -108 -273 -188 -397 -213 -332 -3 9 -6 85 -6
169 0 130 -2 154 -16 159 -24 9 -30 2 -43 -61 -22 -98 -72 -224 -103 -259 -32
-36 -52 -41 -93 -22 -39 18 -49 71 -36 198 6 58 11 120 11 138 0 30 -3 33 -26
30 -23 -3 -34 -21 -101 -173 -41 -93 -79 -174 -84 -179 -11 -12 0 242 12 266
14 26 11 64 -6 78 -22 18 -55 -14 -55 -52 0 -16 -13 -48 -29 -72 -40 -58 -159
-168 -205 -190 -50 -23 -123 -18 -191 15 -89 43 -120 145 -119 394 0 134 4
173 23 240 48 170 165 370 305 522 49 54 73 88 70 98 -13 32 -45 13 -120 -72z
m1236 -100 c-12 -102 -64 -340 -75 -351 -16 -16 19 255 46 358 25 95 28 104
36 97 3 -4 0 -50 -7 -104z m-977 -1355 c-3 -24 -13 -72 -23 -108 -10 -36 -33
-118 -50 -184 -39 -150 -67 -205 -144 -282 -76 -76 -132 -105 -213 -112 -61
-5 -62 -4 -69 23 -11 44 3 129 29 181 46 90 136 198 300 360 89 88 165 161
169 162 3 1 4 -17 1 -40z"/>
<path d="M2092 1564 c-28 -19 -28 -39 0 -58 40 -28 92 32 52 61 -23 16 -25 16
-52 -3z"/>
</g>
</svg>
